<svg width="120" height="40" viewBox="0 0 120 40" fill="none" xmlns="http://www.w3.org/2000/svg">
<mask id="mask0_2080_10899" style="mask-type:luminance" maskUnits="userSpaceOnUse" x="0" y="0" width="40" height="40">
<path d="M40 0H0V40H40V0Z" fill="white"/>
</mask>
<g mask="url(#mask0_2080_10899)">
<path fill-rule="evenodd" clip-rule="evenodd" d="M0 20C0 8.9974 8.9974 0 20 0C31.0026 0 40 8.9974 40 20C40 31.0026 31.0026 40 20 40C8.9974 40 0 31.0026 0 20ZM20 2.60869C10.4374 2.60869 2.60869 10.4374 2.60869 20C2.60869 29.5626 10.4374 37.3913 20 37.3913C29.5626 37.3913 37.3913 29.5626 37.3913 20C37.3913 10.4374 29.5626 2.60869 20 2.60869Z" fill="#4A6FA5"/>
<path fill-rule="evenodd" clip-rule="evenodd" d="M15.495 14.4201C15.9689 14.9627 15.9141 15.7862 15.3715 16.261C13.8924 17.554 12.9619 19.4505 12.9619 21.5662C12.9619 25.4566 16.115 28.6096 20.0054 28.6096C23.8959 28.6096 27.0489 25.4566 27.0489 21.5662C27.0489 19.4696 26.1341 17.5879 24.6785 16.2958C24.1393 15.8175 24.0907 14.9932 24.5689 14.454C25.0472 13.9158 25.8715 13.8662 26.4107 14.3444C28.4002 16.1114 29.6576 18.6923 29.6576 21.5662C29.6576 26.8966 25.3359 31.2184 20.0054 31.2184C14.675 31.2184 10.3533 26.8966 10.3533 21.5662C10.3533 18.6662 11.6333 16.0653 13.655 14.2975C14.1976 13.8236 15.0211 13.8784 15.4959 14.421L15.495 14.4201Z" fill="#4A6FA5"/>
<path fill-rule="evenodd" clip-rule="evenodd" d="M9.48281 13.5407C9.81235 13.2607 10.2854 13.2259 10.6515 13.4546L13.6185 15.3085C14.0845 15.5998 14.2271 16.2155 13.9367 16.6833C13.6463 17.1511 13.0332 17.2937 12.5671 17.0024L12.2297 16.7911L13.0906 18.8798C13.3011 19.3885 13.0593 19.9728 12.5515 20.1842C12.0445 20.3955 11.4619 20.1528 11.2515 19.6442L9.20628 14.6833C9.04108 14.2824 9.15235 13.8207 9.48195 13.5398L9.48281 13.5407Z" fill="#4A6FA5"/>
<path fill-rule="evenodd" clip-rule="evenodd" d="M30.5175 13.5407C30.1879 13.2607 29.7149 13.2259 29.3488 13.4546L26.3819 15.3085C25.9158 15.5998 25.7731 16.2155 26.0636 16.6833C26.354 17.1511 26.9671 17.2937 27.4331 17.0024L27.7705 16.7911L26.9097 18.8798C26.6993 19.3885 26.941 19.9728 27.4488 20.1842C27.9558 20.3955 28.5384 20.1528 28.7479 19.6442L30.794 14.6833C30.9593 14.2824 30.8479 13.8207 30.5184 13.5398L30.5175 13.5407Z" fill="#4A6FA5"/>
<path fill-rule="evenodd" clip-rule="evenodd" d="M20.0001 8.3335C20.7361 8.3335 21.3334 8.78756 21.3334 9.34703V17.32C21.3334 17.8794 20.7361 18.3335 20.0001 18.3335C19.2641 18.3335 18.6667 17.8794 18.6667 17.32V9.34703C18.6667 8.78756 19.2641 8.3335 20.0001 8.3335Z" fill="#4A6FA5"/>
</g>
<path d="M50.4187 28.6665V10.9785H56.9947C58.5787 10.9785 59.7547 11.3625 60.5227 12.1305C61.3067 12.8985 61.6987 14.0345 61.6987 15.5385C61.6987 16.2745 61.5867 16.9145 61.3627 17.4585C61.1547 17.9865 60.8587 18.4265 60.4747 18.7785C60.1067 19.1145 59.6907 19.3465 59.2267 19.4745C59.5627 19.5705 59.9067 19.7145 60.2587 19.9065C60.6267 20.0985 60.9627 20.3705 61.2667 20.7225C61.5867 21.0585 61.8427 21.4825 62.0347 21.9945C62.2267 22.4905 62.3227 23.0825 62.3227 23.7705C62.3227 25.0025 62.1147 25.9785 61.6987 26.6985C61.2987 27.4025 60.7227 27.9065 59.9707 28.2105C59.2187 28.5145 58.3147 28.6665 57.2587 28.6665H50.4187ZM52.8427 26.5065H57.1867C57.7627 26.5065 58.2587 26.4105 58.6747 26.2185C59.0907 26.0265 59.4187 25.7065 59.6587 25.2585C59.8987 24.8105 60.0187 24.1785 60.0187 23.3625C60.0187 22.7705 59.8907 22.2665 59.6347 21.8505C59.3787 21.4185 59.0347 21.0905 58.6027 20.8665C58.1867 20.6425 57.7147 20.5305 57.1867 20.5305H52.8427V26.5065ZM52.8427 18.6585H57.0667C57.7547 18.6585 58.3067 18.4105 58.7227 17.9145C59.1547 17.4025 59.3787 16.7385 59.3947 15.9225C59.4267 14.8825 59.2107 14.1625 58.7467 13.7625C58.2827 13.3465 57.6907 13.1385 56.9707 13.1385H52.8427V18.6585ZM67.5867 28.8105C66.6426 28.8105 65.8586 28.5305 65.2346 27.9705C64.6266 27.3945 64.3226 26.6025 64.3226 25.5945V24.5865C64.3226 23.5945 64.6586 22.7865 65.3306 22.1625C66.0186 21.5225 67.0507 21.2025 68.4267 21.2025H72.4347V19.8585C72.4347 19.3625 72.3467 18.9465 72.1707 18.6105C72.0107 18.2585 71.7067 17.9945 71.2587 17.8185C70.8107 17.6425 70.1467 17.5545 69.2667 17.5545H65.3306V16.1385C65.9066 16.0105 66.5786 15.8985 67.3467 15.8025C68.1307 15.7065 69.0427 15.6505 70.0827 15.6345C71.1387 15.6345 72.0187 15.7705 72.7227 16.0425C73.4427 16.2985 73.9787 16.7305 74.3307 17.3385C74.6827 17.9305 74.8587 18.7225 74.8587 19.7145V28.6665H72.9627L72.5547 27.2505C72.4587 27.3145 72.2587 27.4345 71.9547 27.6105C71.6507 27.7705 71.2587 27.9465 70.7787 28.1385C70.3147 28.3305 69.8027 28.4905 69.2427 28.6185C68.6987 28.7465 68.1467 28.8105 67.5867 28.8105ZM68.6907 27.0585C68.9307 27.0745 69.2107 27.0505 69.5307 26.9865C69.8667 26.9225 70.1947 26.8505 70.5147 26.7705C70.8507 26.6745 71.1547 26.5785 71.4267 26.4825C71.7147 26.3865 71.9467 26.3065 72.1227 26.2425C72.3147 26.1625 72.4187 26.1145 72.4347 26.0985V22.4025L69.0747 22.5465C68.2427 22.5945 67.6427 22.8025 67.2747 23.1705C66.9227 23.5385 66.7467 24.0185 66.7467 24.6105V25.1865C66.7467 25.6505 66.8427 26.0265 67.0347 26.3145C67.2267 26.5865 67.4667 26.7785 67.7547 26.8905C68.0587 27.0025 68.3707 27.0585 68.6907 27.0585ZM82.608 28.8105C82.272 28.8105 81.872 28.8025 81.408 28.7865C80.944 28.7705 80.464 28.7385 79.968 28.6905C79.488 28.6585 79.04 28.6185 78.624 28.5705C78.224 28.5225 77.904 28.4665 77.664 28.4025V26.9625H83.064C83.528 26.9625 83.928 26.9305 84.264 26.8665C84.6 26.7865 84.856 26.6265 85.032 26.3865C85.224 26.1465 85.32 25.7945 85.32 25.3305V24.8025C85.32 24.3225 85.16 23.9465 84.84 23.6745C84.52 23.4025 83.992 23.2665 83.256 23.2665H81.384C80.632 23.2665 79.96 23.1705 79.368 22.9785C78.792 22.7705 78.336 22.4265 78 21.9465C77.68 21.4665 77.52 20.8185 77.52 20.0025V19.3065C77.52 18.4905 77.672 17.8185 77.976 17.2905C78.296 16.7625 78.8 16.3705 79.488 16.1145C80.176 15.8425 81.088 15.7065 82.224 15.7065C82.704 15.7065 83.232 15.7305 83.808 15.7785C84.4 15.8105 84.976 15.8585 85.536 15.9225C86.096 15.9865 86.544 16.0585 86.88 16.1385V17.5785H81.792C81.088 17.5785 80.544 17.6985 80.16 17.9385C79.792 18.1785 79.608 18.6345 79.608 19.3065V19.7865C79.608 20.2025 79.696 20.5225 79.872 20.7465C80.048 20.9705 80.296 21.1145 80.616 21.1785C80.952 21.2425 81.344 21.2745 81.792 21.2745H83.712C84.928 21.2745 85.848 21.5625 86.472 22.1385C87.096 22.6985 87.408 23.4905 87.408 24.5145V25.4985C87.408 26.3625 87.208 27.0345 86.808 27.5145C86.408 27.9945 85.848 28.3305 85.128 28.5225C84.424 28.7145 83.584 28.8105 82.608 28.8105ZM94.5834 28.6665C93.7194 28.6665 92.9994 28.5305 92.4234 28.2585C91.8634 27.9705 91.4474 27.5145 91.1754 26.8905C90.9194 26.2665 90.7994 25.4345 90.8154 24.3945L90.9114 17.7945H88.8714V16.2345L90.9594 15.8265L91.3194 12.2265H93.2154V15.8265H96.6954V17.7945H93.2154V24.3705C93.2154 24.8665 93.2634 25.2665 93.3594 25.5705C93.4554 25.8745 93.5914 26.1065 93.7674 26.2665C93.9434 26.4265 94.1354 26.5465 94.3434 26.6265C94.5514 26.6905 94.7514 26.7305 94.9434 26.7465L96.5274 26.8905V28.6665H94.5834ZM104.184 28.8105C102.824 28.8105 101.736 28.6105 100.92 28.2105C100.12 27.8105 99.544 27.1385 99.192 26.1945C98.856 25.2345 98.688 23.9145 98.688 22.2345C98.688 20.5225 98.856 19.1945 99.192 18.2505C99.544 17.2905 100.12 16.6185 100.92 16.2345C101.72 15.8505 102.8 15.6585 104.16 15.6585C105.344 15.6585 106.296 15.7865 107.016 16.0425C107.752 16.2825 108.288 16.7225 108.624 17.3625C108.976 17.9865 109.152 18.8585 109.152 19.9785C109.152 20.7625 108.992 21.3865 108.672 21.8505C108.368 22.3145 107.928 22.6505 107.352 22.8585C106.792 23.0665 106.12 23.1705 105.336 23.1705H101.088C101.104 24.0985 101.208 24.8425 101.4 25.4025C101.608 25.9465 101.968 26.3465 102.48 26.6025C103.008 26.8425 103.776 26.9625 104.784 26.9625H108.792V28.4025C108.104 28.4985 107.4 28.5865 106.68 28.6665C105.96 28.7625 105.128 28.8105 104.184 28.8105ZM101.064 21.6585H105.12C105.76 21.6585 106.232 21.5385 106.536 21.2985C106.84 21.0585 106.992 20.6185 106.992 19.9785C106.992 19.3385 106.896 18.8345 106.704 18.4665C106.528 18.0985 106.232 17.8345 105.816 17.6745C105.4 17.5145 104.848 17.4345 104.16 17.4345C103.376 17.4345 102.752 17.5545 102.288 17.7945C101.84 18.0345 101.52 18.4585 101.328 19.0665C101.152 19.6745 101.064 20.5385 101.064 21.6585ZM116.521 28.6665C115.657 28.6665 114.937 28.5305 114.361 28.2585C113.801 27.9705 113.385 27.5145 113.113 26.8905C112.857 26.2665 112.737 25.4345 112.753 24.3945L112.849 17.7945H110.809V16.2345L112.897 15.8265L113.257 12.2265H115.153V15.8265H118.633V17.7945H115.153V24.3705C115.153 24.8665 115.201 25.2665 115.297 25.5705C115.393 25.8745 115.529 26.1065 115.705 26.2665C115.881 26.4265 116.073 26.5465 116.281 26.6265C116.489 26.6905 116.689 26.7305 116.881 26.7465L118.465 26.8905V28.6665H116.521Z" fill="#4A6FA5"/>
</svg>
